<?xml version="1.0" encoding="UTF-8"?>
<!DOCTYPE svg PUBLIC "-//W3C//DTD SVG 1.1//EN" "http://www.w3.org/Graphics/SVG/1.1/DTD/svg11.dtd">
<!-- Creator: CorelDRAW 2020 (64-Bit) -->
<svg xmlns="http://www.w3.org/2000/svg" xml:space="preserve" width="17.0476mm" height="16.9332mm" version="1.1" style="shape-rendering:geometricPrecision; text-rendering:geometricPrecision; image-rendering:optimizeQuality; fill-rule:evenodd; clip-rule:evenodd"
viewBox="0 0 1704.76 1693.32"
 xmlns:xlink="http://www.w3.org/1999/xlink"
 xmlns:xodm="http://www.corel.com/coreldraw/odm/2003">

 <g id="Capa_x0020_1">
  <metadata id="CorelCorpID_0Corel-Layer"/>
  <path class="fil0" d="M481.79 699.07c0.78,-0.06 1.55,-0.07 2.31,-0.04l0 -160.38c0,-57.83 23.64,-110.39 61.73,-148.48 38.09,-38.09 90.65,-61.73 148.48,-61.73l307.17 0c57.83,0 110.39,23.64 148.48,61.73 38.09,38.09 61.74,90.65 61.74,148.48l0 207.18c0,100.07 -40.93,191.03 -106.85,256.95 -65.93,65.93 -156.89,106.85 -256.96,106.85 -38.45,0 -75.56,-6.05 -110.42,-17.23l-0.13 6.17c-0.57,29.54 -0.87,44.34 -15.35,63.5 26.47,13.17 54.2,21.23 82.99,25.19 31.22,4.3 63.93,3.82 97.83,-0.15 11.48,-1.31 21.86,6.93 23.17,18.41 1.31,11.48 -6.94,21.86 -18.42,23.17 -37.03,4.34 -73.14,4.81 -108.14,-0.01 -35.52,-4.89 -69.67,-15.18 -102.19,-32.32 -1.92,-1.01 -3.62,-2.28 -5.08,-3.74 -4.68,4.18 -9.85,8.66 -15.57,13.52 -36.84,31.3 -75.54,36.08 -117.76,41.28 -24.85,3.07 -51.08,6.31 -77.28,15.78 -41.19,14.9 -83.52,41.14 -111.89,96.83 -29.72,58.35 -44.85,148.73 -29.56,291.08 1.22,11.48 -7.1,21.78 -18.58,23 -11.48,1.22 -21.78,-7.1 -23,-18.58 -16.28,-151.55 0.78,-249.64 33.81,-314.49 34.38,-67.5 85.4,-99.2 134.97,-117.13 31.07,-11.24 59.51,-14.75 86.46,-18.07 35.76,-4.41 68.55,-8.46 95.81,-31.62 45.29,-38.49 45.42,-44.73 46.03,-76.3 0.13,-6.46 0.27,-13.71 0.6,-21.62 -39.34,-18.2 -74.94,-43.21 -105.25,-73.52 -65.92,-65.93 -106.84,-156.89 -106.84,-256.95l0 -4.96c-57.22,3.89 -78.9,-55.25 -84.76,-130.58 -4.8,-61.55 0.61,-134.55 4.44,-186.31 1.38,-18.67 2.56,-34.62 2.93,-44.53 2.87,-76.54 31.63,-142.46 76.66,-196.51 47.81,-57.36 113.86,-101.12 186.47,-129.74 72.12,-28.41 151.06,-42.01 225.15,-39.23 82.97,3.11 160.23,26.8 215.95,73.23 8.86,7.37 10.07,20.53 2.7,29.39 -0.88,1.06 -1.85,2.01 -2.88,2.85l-3.36 2.74c35.83,3.96 87.2,16.66 148.82,55.66 32.34,20.48 65.82,49.51 84.56,80.41 8.54,14.08 14.2,28.7 15.71,43.4 1.64,16.03 -1.5,31.78 -10.87,46.59 -7.36,11.64 -18.53,22.43 -34.24,31.95 -7.15,4.34 -11.83,39.11 -14.6,82.14 -4.56,70.47 -0.28,157.57 5.55,187.07 2.21,11.35 -5.19,22.35 -16.54,24.56 -11.35,2.22 -22.34,-5.19 -24.56,-16.53 -6.27,-31.75 -10.97,-124 -6.21,-197.72 3.57,-55.28 13.76,-102.48 34.75,-115.21 9.82,-5.96 16.47,-12.18 20.49,-18.52 4.01,-6.35 5.36,-13.14 4.64,-20.07 -0.85,-8.29 -4.39,-17.12 -9.81,-26.05 -15.08,-24.86 -43.39,-49.09 -71.13,-66.65 -83.13,-52.62 -144.1,-51.35 -168.26,-50.84 -8.92,0.18 -14.92,0.31 -20.72,-2.41 -0.84,-0.38 -1.67,-0.83 -2.48,-1.33 -27.67,-17.31 -16.11,-26.29 14.72,-50.14l6.03 -4.67c-46.16,-30.06 -105.78,-45.71 -169.73,-48.1 -68.41,-2.57 -141.49,10.06 -208.45,36.45 -66.47,26.2 -126.59,65.84 -169.61,117.46 -39.37,47.24 -64.5,104.73 -67,171.3 -0.48,12.89 -1.61,28.14 -2.93,45.99 -3.73,50.47 -9,121.66 -4.44,180.26 4.08,52.44 14.97,93.89 40.7,91.89zm550.9 884.6c-11.57,0 -20.96,-9.38 -20.96,-20.95 0,-11.58 9.39,-20.96 20.96,-20.96l101.65 0c11.57,0 20.96,9.38 20.96,20.96 0,11.57 -9.39,20.95 -20.96,20.95l-101.65 0zm-52.24 -432.18c-3.57,-10.99 2.44,-22.79 13.43,-26.36 10.98,-3.57 22.78,2.44 26.35,13.43 19.19,58.32 66.78,64.07 122.54,70.8 60.34,7.29 128.7,15.54 190.27,78.18 75.12,76.43 74.85,111.97 73.71,265.22 -0.22,30.13 -0.48,65.04 -0.18,105.99 0.05,11.53 -9.26,20.91 -20.79,20.96 -11.53,0.04 -20.91,-9.27 -20.96,-20.8 -0.3,-41.11 -0.04,-76.11 0.18,-106.31 1.04,-139.31 1.28,-171.62 -61.75,-235.76 -51.24,-52.11 -111.87,-59.44 -165.39,-65.9 -70.06,-8.45 -129.85,-15.68 -157.41,-99.45zm21.03 -781.14l-307.17 0c-46.26,0 -88.33,18.94 -118.85,49.45 -30.51,30.52 -49.45,72.59 -49.45,118.85l0 207.18c0,88.49 36.22,168.96 94.57,227.32 58.35,58.35 138.82,94.57 227.31,94.57 88.5,0 168.97,-36.22 227.32,-94.57 58.35,-58.35 94.57,-138.82 94.57,-227.32l0 -207.18c0,-46.26 -18.94,-88.33 -49.45,-118.85 -30.51,-30.51 -72.59,-49.45 -118.85,-49.45z"/>
 </g>
</svg>
