<?xml version="1.0" encoding="UTF-8"?>
<!DOCTYPE svg PUBLIC "-//W3C//DTD SVG 1.1//EN" "http://www.w3.org/Graphics/SVG/1.1/DTD/svg11.dtd">
<!-- Creator: CorelDRAW 2020 (64-Bit) -->
<svg xmlns="http://www.w3.org/2000/svg" xml:space="preserve" width="17.0476mm" height="16.9332mm" version="1.1" style="shape-rendering:geometricPrecision; text-rendering:geometricPrecision; image-rendering:optimizeQuality; fill-rule:evenodd; clip-rule:evenodd"
viewBox="0 0 1704.76 1693.32"
 xmlns:xlink="http://www.w3.org/1999/xlink"
 xmlns:xodm="http://www.corel.com/coreldraw/odm/2003">
 <g id="Capa_x0020_1">
  <metadata id="CorelCorpID_0Corel-Layer"/>
  <path class="fil0" d="M371 1163.21c13.92,0 25.19,11.28 25.19,25.19 0,13.91 -11.27,25.19 -25.19,25.19 -13.91,0 -25.19,-11.28 -25.19,-25.19 0,-13.91 11.28,-25.19 25.19,-25.19zm1125.96 19.49c14.7,0 26.61,11.92 26.61,26.62 0,14.7 -11.91,26.61 -26.61,26.61 -14.7,0 -26.62,-11.91 -26.62,-26.61 0,-14.7 11.92,-26.62 26.62,-26.62zm-661.62 -1172.7c0.38,-0.6 0.8,-1.18 1.25,-1.75 4.19,-5.31 10.4,-8.11 16.69,-8.15 0.67,-0.07 1.36,-0.1 2.05,-0.1 7.72,0 14.5,4.06 18.3,10.17l370.79 293 0 -163.74c0,-11.91 9.65,-21.56 21.56,-21.56l197.72 0c11.9,0 21.56,9.65 21.56,21.56l0 354.05 195.47 154.47c1.25,0.81 2.44,1.76 3.53,2.86 8.42,8.41 8.42,22.07 0,30.48l-118.82 118.83 -0.04 -0.05c-7.53,7.55 -19.68,8.5 -28.33,1.81l-17.6 -13.65 0 296.08c0,11.9 -9.65,21.55 -21.55,21.55 -11.91,0 -21.56,-9.65 -21.56,-21.55l0 -327c0,-0.83 0.05,-1.64 0.14,-2.44l-622.12 -482.93 -618.17 479.85 0 898.42 110.5 0 0 -335.63c0,-11.9 9.65,-21.55 21.55,-21.55 11.91,0 21.56,9.65 21.56,21.55l0 335.63 1086.54 0 0 -341.57c0,-11.9 9.65,-21.56 21.56,-21.56 11.9,0 21.55,9.66 21.55,21.56l0 341.57 160.96 0c11.9,0 21.56,9.65 21.56,21.55 0,11.91 -9.66,21.56 -21.56,21.56l-1661.62 0c-11.9,0 -21.55,-9.65 -21.55,-21.56 0,-11.9 9.65,-21.55 21.55,-21.55l174.29 0 0 -864.95 -20.06 15.57c-8.45,7.69 -21.56,7.45 -29.73,-0.71l-118.82 -118.83 0.07 -0.06c-0.59,-0.59 -1.15,-1.21 -1.67,-1.87 -7.35,-9.3 -5.76,-22.8 3.54,-30.15l808.91 -639.21zm39.64 763.17l0 278.18 276.28 0 0 -278.18 -276.28 0zm0 321.29l0 278.19 276.28 0 0 -278.19 -276.28 0zm-43.11 278.19l0 -278.19 -276.29 0 0 278.19 276.29 0zm0 -321.3l0 -278.18 -276.29 0 0 278.18 276.29 0zm-297.84 -321.3l319.39 0 319.4 0c11.9,0 21.55,9.66 21.55,21.56l0 321.3 0 321.3c0,11.9 -9.65,21.55 -21.55,21.55l-319.4 0 -319.39 0c-11.91,0 -21.56,-9.65 -21.56,-21.55l0 -321.3 0 -321.3c0,-11.9 9.65,-21.56 21.56,-21.56zm-333.89 -4.66c0.83,-0.76 1.72,-1.46 2.67,-2.08l638.43 -495.59c8.03,-6.2 19.07,-5.83 26.63,0.28l680.49 528.23 88.35 -88.35 -186.32 -147.24c-5.35,-4.23 -8.15,-10.5 -8.15,-16.84l-0.1 0 0 -342.82 -154.61 0 0 186.58c0,11.9 -9.65,21.55 -21.55,21.55 -5.78,0 -11.02,-2.27 -14.89,-5.96l-396.71 -313.49 -782.34 618.22 88.36 88.35 39.74 -30.84z"/>
 </g>
</svg>
