<?xml version="1.0" encoding="UTF-8"?>
<!DOCTYPE svg PUBLIC "-//W3C//DTD SVG 1.1//EN" "http://www.w3.org/Graphics/SVG/1.1/DTD/svg11.dtd">
<!-- Creator: CorelDRAW 2020 (64-Bit) -->
<svg xmlns="http://www.w3.org/2000/svg" xml:space="preserve" width="17.0476mm" height="16.9332mm" version="1.1" style="shape-rendering:geometricPrecision; text-rendering:geometricPrecision; image-rendering:optimizeQuality; fill-rule:evenodd; clip-rule:evenodd"
viewBox="0 0 1704.76 1693.32"
 xmlns:xlink="http://www.w3.org/1999/xlink"
 xmlns:xodm="http://www.corel.com/coreldraw/odm/2003">
 <defs>
  <style type="text/css">
   <![CDATA[
    .fil0 {fill:black;fill-rule:nonzero}
   ]]>
  </style>
 </defs>
 <g id="Capa_x0020_1">
  <metadata id="CorelCorpID_0Corel-Layer"/>
  <path class="fil0" d="M677.48 61.82l349.68 0c37.18,0 70.96,15.19 95.43,39.67 21.22,21.22 35.47,49.44 38.88,80.8 0.21,1.17 0.33,2.39 0.34,3.63 0.3,3.63 0.45,7.29 0.45,10.99l0 101.61 439.5 0c28.08,0 53.6,11.47 72.08,29.96 18.49,18.48 29.96,44 29.96,72.08l0 428.78 -0.26 0c-1.03,6.8 -5.48,12.9 -12.29,15.73 -6.58,2.73 -13.16,5.43 -19.74,8.1l0 697.92c0,24.52 -10.02,46.79 -26.15,62.92 -16.13,16.13 -38.4,26.14 -62.92,26.14l-1462.08 0c-24.51,0 -46.78,-10.01 -62.91,-26.14 -16.13,-16.13 -26.15,-38.4 -26.15,-62.92l0 -406.47c0,-11.23 9.11,-20.33 20.33,-20.33l21.37 0c0,141.13 -1.03,284.41 -1.03,426.8 0,13.29 5.45,25.39 14.23,34.17 8.78,8.78 20.88,14.23 34.16,14.23l1462.08 0c13.29,0 25.39,-5.45 34.17,-14.23 8.78,-8.78 14.23,-20.88 14.23,-34.17l0 -681.86c-212.98,82.02 -426.27,130.32 -639.85,144.87l0 172.66c0,11.23 -9.1,20.33 -20.33,20.33l-242.08 0c-11.23,0 -20.33,-9.1 -20.33,-20.33l0 -173.11c-210.85,-15.01 -421.97,-62.84 -633.36,-143.49l0 183.02c0,11.23 -9.1,20.33 -20.33,20.33 -11.23,0 -20.33,-9.1 -20.33,-20.33l0 -198.94c-7.52,-3.02 -15.04,-6.07 -22.56,-9.17 -7.58,-3.11 -12.25,-10.29 -12.55,-17.97l-0.08 0 0 -426.54c0,-28.08 11.48,-53.6 29.96,-72.08 18.48,-18.49 44,-29.96 72.08,-29.96l441.31 0 0 -101.61c0,-4.19 0.19,-8.34 0.57,-12.44l0.05 -0.51 0.01 -0.08c3.09,-31.99 17.45,-60.82 39.03,-82.39 24.48,-24.48 58.26,-39.67 95.43,-39.67zm-529.02 1476.12c-11.22,0 -20.33,-9.11 -20.33,-20.34 0,-11.22 9.11,-20.33 20.33,-20.33l1409.47 0c11.23,0 20.33,9.11 20.33,20.33 0,11.23 -9.1,20.34 -20.33,20.34l-1409.47 0zm842.53 -564.61c224.33,-15.58 448.38,-69.1 672.14,-160.58l0 -412.19c0,-16.86 -6.91,-32.2 -18.04,-43.33 -11.13,-11.13 -26.47,-18.05 -43.33,-18.05l-459.83 0 -104.91 0 -364.02 0 -110.28 0 -461.64 0c-16.85,0 -32.2,6.92 -43.33,18.05 -11.13,11.13 -18.04,26.47 -18.04,43.33l0 412.19c6.95,2.83 13.9,5.6 20.85,8.35 1.01,0.32 1.99,0.71 2.92,1.16 215.2,84.86 430.13,135.07 644.77,150.63l0 -146.56c0,-11.23 9.1,-20.33 20.33,-20.33l242.08 0c11.23,0 20.33,9.1 20.33,20.33l0 147zm-157.22 -38.52c0,-11.23 9.11,-20.33 20.34,-20.33 11.23,0 20.33,9.1 20.33,20.33l0 145.25c0,11.23 -9.1,20.33 -20.33,20.33 -11.23,0 -20.34,-9.1 -20.34,-20.33l0 -145.25zm116.56 -88.15l-201.42 0 0 319.76 201.42 0 0 -319.76zm-256.99 -640.29l0 92.15 323.35 0 0 -92.15 -323.35 0zm-40.67 92.15l0 -92.15 -69.62 0 0 92.15 69.62 0zm404.69 -92.15l0 92.15 64.23 0 0 -92.15 -64.23 0zm-468.96 -40.67l84.6 0 364.02 0 79.23 0c-4.76,-13.46 -12.49,-25.55 -22.41,-35.46 -17.13,-17.13 -40.73,-27.76 -66.68,-27.76l-349.68 0c-25.94,0 -49.55,10.63 -66.67,27.76 -9.92,9.91 -17.66,22 -22.41,35.46z"/>
 </g>
</svg>
