<?xml version="1.0" encoding="UTF-8"?>
<!DOCTYPE svg PUBLIC "-//W3C//DTD SVG 1.1//EN" "http://www.w3.org/Graphics/SVG/1.1/DTD/svg11.dtd">
<!-- Creator: CorelDRAW 2020 (64-Bit) -->
<svg xmlns="http://www.w3.org/2000/svg" xml:space="preserve" width="17.0476mm" height="16.9332mm" version="1.1" style="shape-rendering:geometricPrecision; text-rendering:geometricPrecision; image-rendering:optimizeQuality; fill-rule:evenodd; clip-rule:evenodd"
viewBox="0 0 1704.76 1693.32"
 xmlns:xlink="http://www.w3.org/1999/xlink"
 xmlns:xodm="http://www.corel.com/coreldraw/odm/2003">
 <defs>
  <style type="text/css">
   <![CDATA[
    .fil0 {fill:black;fill-rule:nonzero}
   ]]>
  </style>
 </defs>
 <g id="Capa_x0020_1">
  <metadata id="CorelCorpID_0Corel-Layer"/>
  <path class="fil0" d="M287.71 1010.11l412.56 396.95 65 -67.56 -96.89 -93.23 -0.83 -0.79 -225.61 -217.07c-0.61,-0.53 -1.17,-1.08 -1.71,-1.65l-87.52 -84.21 -65 67.56zm287.78 79.74l587.22 -582.27c9.45,-9.39 24.76,-9.36 34.15,0.1 9.4,9.45 9.36,24.76 -0.1,34.15l-586.45 581.53 75.79 72.92 896.86 -718.45 65.85 -421.47 -436.64 79.39 -721.39 872.6 84.71 81.5zm-119.67 -115.13l724.62 -876.52c4.19,-5.07 10.01,-7.98 16.07,-8.63l477.12 -86.76c13.1,-2.34 25.65,6.38 27.99,19.49 0.49,2.7 0.5,5.37 0.1,7.94l-72.55 464.3c-0.96,6.19 -4.19,11.47 -8.72,15.1l-899.24 720.42 94.96 91.37c9.61,9.24 9.9,24.55 0.66,34.16l-98.5 102.37c-9.24,9.61 -24.54,9.9 -34.15,0.66l-151.53 -145.79 -380.52 371.24c-9.55,9.29 -24.86,9.07 -34.15,-0.48l-113.89 -116.73c-9.29,-9.55 -9.07,-24.85 0.48,-34.14l375.69 -366.52 -143.45 -138.02c-9.61,-9.24 -9.9,-24.55 -0.66,-34.15l98.5 -102.38c9.24,-9.61 24.54,-9.9 34.15,-0.66l87.02 83.73zm-285.2 463.46l80.16 82.17 243.92 -237.97 -80.16 -82.16 -243.92 237.96zm45.6 115.89l-80.16 -82.17 -80.51 78.54 80.16 82.17 80.51 -78.54z"/>
 </g>
</svg>
