<?xml version="1.0" encoding="UTF-8"?>
<!DOCTYPE svg PUBLIC "-//W3C//DTD SVG 1.1//EN" "http://www.w3.org/Graphics/SVG/1.1/DTD/svg11.dtd">
<!-- Creator: CorelDRAW 2020 (64-Bit) -->
<svg xmlns="http://www.w3.org/2000/svg" xml:space="preserve" width="17.0476mm" height="16.9332mm" version="1.1" style="shape-rendering:geometricPrecision; text-rendering:geometricPrecision; image-rendering:optimizeQuality; fill-rule:evenodd; clip-rule:evenodd"
viewBox="0 0 1704.76 1693.32"
 xmlns:xlink="http://www.w3.org/1999/xlink"
 xmlns:xodm="http://www.corel.com/coreldraw/odm/2003">
 <g id="Capa_x0020_1">
  <metadata id="CorelCorpID_0Corel-Layer"/>
  <path class="fil0" d="M1165.93 1011.15l438.51 -755.23 -154.65 -89.79 -438.51 755.23 154.65 89.79zm-1024.49 -601.27l406.94 0c26.99,0 25.36,43.4 0,43.4l-406.94 0c-27.69,0 -52.88,11.35 -71.16,29.63 -18.28,18.28 -29.63,43.47 -29.63,71.16l0 734.98c0,27.69 11.35,52.89 29.63,71.17 18.28,18.27 43.47,29.62 71.16,29.62l101.26 0 0 0.08c7.41,0.01 14.63,3.83 18.65,10.69l131.87 224.57 147.11 -223.8c3.64,-6.86 10.86,-11.54 19.18,-11.54l795.41 0c27.69,0 52.89,-11.35 71.17,-29.62 18.28,-18.28 29.62,-43.48 29.62,-71.17l0 -690.74 -262.53 452.16c-1.53,3.05 -3.8,5.79 -6.77,7.91l-207.4 148.77c-9.74,6.97 -23.3,4.73 -30.27,-5 -3.26,-4.56 -4.51,-9.95 -3.91,-15.11l1.61 -27.5 -669.1 0c-11.99,0 -21.7,-9.72 -21.7,-21.7 0,-11.99 9.71,-21.71 21.7,-21.71l671.66 0 9.5 -161.39 -681.16 0c-11.99,0 -21.7,-9.72 -21.7,-21.7 0,-11.99 9.71,-21.7 21.7,-21.7l689.69 0 91.49 -157.57 -781.18 0c-11.99,0 -21.7,-9.71 -21.7,-21.7 0,-11.99 9.71,-21.7 21.7,-21.7l806.38 0 149.27 -257.09 -407.33 0c-27.68,0 -27.44,-43.4 -0.24,-43.4l432.77 0 164.93 -284.05 0.08 -0.15 0.08 -0.13 30.55 -52.61c0.46,-0.95 1,-1.87 1.61,-2.75 18.4,-30.8 47.58,-51.5 79.97,-60.09 32.34,-8.59 67.93,-5.07 99.15,12.56 0.99,0.48 1.95,1.03 2.87,1.67 30.8,18.4 51.51,47.59 60.1,79.97 8.71,32.84 4.95,69.01 -13.38,100.58l-187.46 322.86c1.59,8.54 2.43,17.34 2.43,26.33l0 734.98c0,39.68 -16.22,75.73 -42.34,101.86 -26.13,26.12 -62.18,42.33 -101.86,42.33l-783.82 0 -160.86 244.74c-6.56,9.97 -19.96,12.74 -29.93,6.18 -2.87,-1.89 -5.14,-4.34 -6.77,-7.12l-143.17 -243.8 -88.93 0c-39.67,0 -75.73,-16.21 -101.85,-42.33 -26.13,-26.13 -42.34,-62.18 -42.34,-101.86l0 -734.98c0,-39.67 16.21,-75.73 42.34,-101.85 26.12,-26.13 62.18,-42.34 101.85,-42.34zm859.8 555.72l-10.58 179.8 143.27 -102.76 -132.69 -77.04zm624.94 -747.12l20.5 -35.31c12.34,-21.25 14.86,-45.66 8.97,-67.85 -5.87,-22.14 -20.14,-42.05 -41.37,-54.37l-0.05 -0.04c-21.24,-12.31 -45.63,-14.82 -67.8,-8.94 -22.14,5.87 -42.05,20.14 -54.37,41.37l-20.53 35.34 154.65 89.8zm-934.75 184.35c12.95,0 23.45,10.49 23.45,23.44 0,12.95 -10.5,23.45 -23.45,23.45 -12.95,0 -23.45,-10.5 -23.45,-23.45 0,-12.95 10.5,-23.44 23.45,-23.44z"/>
 </g>
</svg>
